<svg xmlns="http://www.w3.org/2000/svg" width="512" height="512" viewBox="0 0 28.87 28.87"><g fill="#D80027"><circle cx="11.05" cy="8.62" r="2.35"/><circle cx="16.16" cy="17.37" r="1.51"/><path d="M24.42 12.42c1.9-9.27-5.63-13.51-14-12.18-8.35 1.33-8.04 6.39-8.53 8.8-.98 6.05 5.25 12.8 5.25 12.8l-.36 7.03h10.14l.77-3.23s.44.74 3.06.96c2.62.22 2.3-2.97 2.3-2.97s1.75-.77 1.75-1.35c0-.58-1.03-1.32-1.03-1.32s1.1.2 1.5-.27c.4-.47-.48-2.15-.48-2.15s1.37-.04 2.17-.93c.8-.88-2.54-3.5-2.54-5.2zM9.95 13.68l-.09-.94c-.25-.06-.5-.15-.73-.26l-.83.7-.14.08c-.04.03-.92-.07-.92-.07L5.73 11.4v-1.06l.87-.74a3.9 3.9 0 0 1-.12-.73l-1.14-.52-.3-.9.03-.14.98-2.12 1.03-.27.98.45c.2-.17.42-.31.64-.44l-.1-1.19.76-.75 2.33-.19.75.76.08.9c.3.08.59.19.86.32l.76-.65h1.07l1.52 1.78v1.06l-.93.8c.05.2.07.43.08.65l1.17.68.27 1.03-1.17 2.02-1.03.27-.9-.52c-.18.13-.36.25-.55.36l.1 1.21-.74.75-2.33.22-.75-.76zm9.48 5.96l-.66.17-.58-.33-.35.23.07.77-.49.48-1.49.14-.48-.48-.05-.6c-.17-.05-.32-.1-.47-.17l-.53.45-.1.05c-.02.01-.58-.05-.58-.05l-.97-1.15v-.68l.56-.48a2.53 2.53 0 0 1-.08-.47l-.73-.33-.2-.57.02-.1.63-1.35.66-.18.63.29c.13-.1.27-.2.41-.28l-.06-.76.49-.49 1.49-.12.48.49.05.57c.2.06.38.13.56.21l.48-.41h.69l.97 1.14v.68l-.6.5c.04.15.05.29.06.43l.75.44.17.66-.75 1.3z"/></g></svg>